<?xml version="1.0" standalone="no"?>
<!DOCTYPE svg PUBLIC "-//W3C//DTD SVG 20010904//EN"
 "http://www.w3.org/TR/2001/REC-SVG-20010904/DTD/svg10.dtd">
<svg version="1.0" xmlns="http://www.w3.org/2000/svg"
 width="416.000000pt" height="416.000000pt" viewBox="0 0 416.000000 416.000000"
 preserveAspectRatio="xMidYMid meet">
<metadata>
Created by potrace 1.11, written by Peter Selinger 2001-2013
</metadata>
<g transform="translate(0.000000,416.000000) scale(0.100000,-0.100000)"
fill="#000000" stroke="none">
<path d="M2011 3846 c-179 -59 -284 -252 -236 -436 29 -112 89 -186 195 -240
61 -31 184 -39 262 -16 62 18 146 76 183 127 69 92 88 242 46 351 -29 76 -106
159 -178 195 -69 33 -199 42 -272 19z m194 -155 c45 -21 90 -62 111 -104 17
-33 20 -121 5 -160 -32 -82 -113 -137 -201 -137 -178 0 -274 219 -151 347 70
73 154 92 236 54z"/>
<path d="M1465 3378 c-31 -17 -45 -39 -45 -72 0 -53 11 -74 46 -91 67 -32 134
10 134 84 0 41 -5 51 -40 74 -28 19 -66 21 -95 5z"/>
<path d="M2669 3331 c-32 -33 -37 -67 -14 -110 31 -62 129 -59 159 3 47 99
-68 184 -145 107z"/>
<path d="M838 3282 c-156 -57 -248 -202 -236 -370 10 -133 85 -244 206 -304
40 -20 62 -23 152 -23 94 0 111 3 161 28 66 32 126 94 166 169 24 47 27 63 28
153 0 88 -3 107 -26 156 -37 79 -90 133 -166 171 -56 27 -78 32 -152 35 -63 2
-99 -2 -133 -15z m207 -151 c84 -38 132 -123 122 -218 -6 -60 -34 -104 -93
-150 -50 -37 -143 -44 -200 -15 -133 68 -164 228 -66 334 62 65 158 85 237 49z"/>
<path d="M3173 3286 c-96 -31 -188 -119 -223 -213 -29 -78 -29 -189 0 -266 51
-135 164 -216 312 -225 97 -6 152 9 229 60 228 152 200 503 -49 625 -47 23
-72 28 -142 30 -51 2 -102 -3 -127 -11z m190 -150 c119 -52 167 -190 104 -299
-89 -151 -307 -138 -375 22 -19 46 -18 130 2 169 19 37 76 92 113 108 38 17
117 17 156 0z"/>
<path d="M2042 2750 c-94 -57 -96 -196 -3 -257 93 -63 231 10 231 122 0 120
-128 196 -228 135z"/>
<path d="M1613 2569 c-55 -27 -77 -73 -71 -145 3 -39 11 -61 29 -80 75 -80
195 -70 246 21 29 51 29 89 1 145 -40 76 -122 100 -205 59z"/>
<path d="M2471 2568 c-39 -27 -71 -81 -71 -120 0 -15 7 -45 15 -66 59 -147
285 -103 285 55 0 92 -49 145 -140 151 -45 3 -61 0 -89 -20z"/>
<path d="M739 2391 c-70 -70 1 -187 93 -152 43 16 58 39 58 87 0 89 -88 127
-151 65z"/>
<path d="M3440 2392 c-60 -61 -25 -157 58 -157 58 0 92 34 92 91 0 56 -24 84
-77 91 -37 5 -46 2 -73 -25z"/>
<path d="M1465 2149 c-40 -12 -58 -28 -84 -69 -44 -73 -17 -168 60 -208 132
-69 271 77 198 208 -34 60 -109 90 -174 69z"/>
<path d="M2659 2140 c-114 -60 -92 -247 32 -280 101 -27 189 41 189 146 0 118
-117 189 -221 134z"/>
<path d="M550 2020 c-154 -56 -248 -200 -238 -364 14 -219 204 -373 415 -336
36 6 84 20 106 31 61 32 134 106 164 168 25 50 28 67 28 156 0 87 -3 107 -26
155 -80 168 -278 251 -449 190z m224 -164 c62 -36 98 -92 104 -160 6 -70 -9
-113 -56 -160 -46 -48 -90 -68 -157 -68 -152 -2 -250 163 -180 302 57 113 181
150 289 86z"/>
<path d="M3460 2015 c-65 -21 -148 -82 -187 -139 -47 -69 -66 -143 -61 -235 8
-138 82 -245 208 -304 85 -40 194 -43 282 -8 80 31 157 104 194 183 26 56 29
74 29 158 0 84 -3 102 -28 152 -36 73 -101 139 -172 173 -68 34 -194 43 -265
20z m172 -147 c23 -7 59 -31 84 -55 104 -105 77 -265 -58 -334 -67 -34 -170
-20 -231 31 -62 51 -86 183 -46 250 62 103 146 140 251 108z"/>
<path d="M1612 1700 c-130 -80 -74 -280 79 -280 147 0 204 195 80 277 -44 29
-113 31 -159 3z"/>
<path d="M2495 1711 c-32 -14 -73 -60 -86 -98 -30 -93 43 -193 143 -193 52 1
114 34 134 72 23 43 22 118 -2 159 -34 57 -125 86 -189 60z"/>
<path d="M2039 1517 c-96 -64 -87 -212 15 -261 133 -63 265 74 201 208 -34 71
-148 99 -216 53z"/>
<path d="M915 1203 c-40 -10 -65 -44 -65 -89 0 -57 24 -85 81 -91 38 -4 48 -2
72 22 67 67 4 179 -88 158z"/>
<path d="M3207 1199 c-41 -11 -56 -27 -63 -65 -12 -65 28 -114 92 -114 62 0
101 55 84 120 -6 21 -15 42 -21 45 -23 15 -66 21 -92 14z"/>
<path d="M1353 1006 c-92 -30 -167 -99 -211 -195 -22 -48 -26 -69 -26 -151 0
-84 4 -102 30 -155 35 -73 94 -134 166 -172 48 -25 63 -28 153 -28 93 0 105 2
167 33 74 36 133 96 170 170 20 40 23 63 23 152 0 125 -17 171 -91 250 -70 75
-137 104 -248 107 -57 2 -107 -2 -133 -11z m200 -150 c41 -17 95 -71 113 -113
56 -131 -50 -293 -192 -293 -108 0 -214 101 -214 203 0 81 58 172 130 204 35
16 124 16 163 -1z"/>
<path d="M2628 999 c-78 -28 -146 -91 -189 -175 -31 -63 -34 -75 -34 -158 0
-81 4 -98 32 -158 60 -128 163 -198 304 -206 113 -7 192 22 268 97 87 85 106
133 106 261 0 92 -4 112 -26 160 -32 68 -97 133 -168 168 -75 36 -209 41 -293
11z m246 -159 c62 -42 90 -93 94 -169 3 -60 0 -71 -27 -113 -96 -150 -296
-140 -370 17 -38 81 -23 161 42 228 56 58 80 67 158 64 51 -2 75 -8 103 -27z"/>
<path d="M2056 639 c-21 -17 -26 -29 -26 -65 0 -61 32 -94 90 -94 56 0 90 34
90 90 0 80 -89 120 -154 69z"/>
</g>
</svg>
